# xmcd
#
# Track frame offsets: 
#        150
#        17026
#        35621
#        55179
#        72298
#        91567
#        107508
#        133890
#        153039
#        171709
#
# Disc length: 2502 seconds
#
# Revision: 6
# Processed by: cddbd v1.5.2PL0 Copyright (c) Steve Scherf et al.
# Submitted via: ExactAudioCopy v0.95a4
#
DISCID=7d09c40a
DTITLE=Simple Minds - Neon Lights
DYEAR=2001
DGENRE=Rock
TTITLE0=Gloria
TTITLE1=The Man Who Sold The World
TTITLE2=Homosapien
TTITLE3=Dancing Barefoot
TTITLE4=Neon Lights
TTITLE5=Hello I Love You
TTITLE6=Bring On The Dancing Horses
TTITLE7=The Needle and The Damage Done
TTITLE8=For Your Pleasure
TTITLE9=All Tomorrow's Parties
EXTD=YEAR: 2001
EXTT0=
EXTT1=
EXTT2=
EXTT3=
EXTT4=
EXTT5=
EXTT6=
EXTT7=
EXTT8=
EXTT9=
PLAYORDER=
